<?xml version="1.0" encoding="UTF-8"?>
<svg id="Layer_2" data-name="Layer 2" xmlns="http://www.w3.org/2000/svg" viewBox="0 0 6967.06 1854.69">
  <defs>
    <style>
      .cls-1 {
        font-family: Montserrat-Bold, Montserrat;
        font-size: 641.75px;
        font-weight: 700;
      }

      .cls-1, .cls-2 {
        fill: #fff;
      }

      .cls-3 {
        letter-spacing: 0em;
      }

      .cls-4 {
        letter-spacing: 0em;
      }

      .cls-5 {
        letter-spacing: 0em;
      }
    </style>
  </defs>
  <g id="Layer_1-2" data-name="Layer 1">
    <text class="cls-1" transform="translate(1861.36 1133.52)"><tspan x="0" y="0">Nu</tspan><tspan class="cls-4" x="959.41" y="0">r</tspan><tspan x="1234.72" y="0">si</tspan><tspan class="cls-3" x="1768.65" y="0">n</tspan><tspan class="cls-5" x="2215.94" y="0">g Allianz</tspan></text>
    <g>
      <path class="cls-2" d="M1067.74,670.5c22.96-9.65,33.64-33.23,9.86-88.48-42.1-97.82-15.3-229.62-31.57-326.98C1023.65,121.05,932.32-2.79,784.94,.05c-145.43,2.8-229.96,121.13-253.46,253.36-20.38,114.71,16.87,247.91-42.43,343.54-26.69,43.04-19.58,68.08,.5,82.25-116.04,40.16-194.39,137.68-194.39,356.59h0c0,113.82,92.27,206.08,206.08,206.08h583.86c113.82,0,206.08-92.27,206.08-206.08h0c0-236.73-91.62-331.5-223.45-365.29Zm-314.12,385.07c-10.55,21.75-33.66,32.84-60.08,40.07-3.97,8.15-13.62,14.47-25.94,16.07-17.36,2.25-32.25-5.83-33.92-18.77-1.68-12.95,10.66-24.56,28.02-26.81,10.99-1.42,20.91,1.33,27.13,6.84,16.17-4.69,30.38-11.8,36.73-25.31,7.5-16,9.35-27.35-5.65-42.38-10.99-11.02-22.49-22.53-34.2-34.22-2.86-2.86-5.74-5.73-8.63-8.61l-4.48,.58c-2.79,.36-5.52-.41-7.14-2.02-26.05-25.89-47.92-47.37-66.89-65.64-14.28-13.75-26.88-15.07-45.13-12.7-1.5,.19-2.94,.4-4.36,.62-15.87,2.56-26.64,7.62-36.09,23.16-13.79,22.7-29.49,49.03-47.97,80.52-1.16,1.97-3.59,3.41-6.38,3.78l-4.48,.58c-10.48,17.87-20.77,35.55-30.51,52.3-10.66,18.36-6,28.88,5.35,42.44,9.65,11.55,25.37,14.77,42.35,15.13,4.67-6.95,13.65-12.18,24.7-13.61,17.34-2.25,32.02,5.88,33.69,18.81,1.68,12.94-10.45,24.52-27.79,26.77-12.32,1.6-23.38-2.04-29.36-8.9-27.35-.34-53.29-4.71-69.02-23.19-17.75-20.88-23.6-37.83-7.92-65.7,7.24-12.87,15.07-26.42,23.17-40.25-1.23-.35-2.33-.94-3.14-1.74-1.64-1.61-1.92-3.81-.76-5.78,10.26-17.49,20.94-35.41,31.27-52.74,8.45-14.2,16.44-27.6,24.11-40.59,13.73-23.3,30.55-30.68,53.82-40.89,.58-.26,1.17-.52,1.75-.78l-.04-.28c-.31-2.49,1.54-4.88,4.4-6.07-3.35-9.6-5.74-19.58-7.07-29.88-8.48-65.45,24.62-150.29,84.42-211.23l16.03,27.76c-47.08,52.01-72.68,121.1-65.69,174.99,1.52,11.77,4.63,23.04,9.16,33.73,.91,.18,1.76,.48,2.51,.9,1.59,.9,2.61,2.27,2.79,3.81l.03,.24c.6,.1,1.18,.19,1.77,.29,25.12,3.95,43.28,6.81,62.54,25.84,9.91,9.78,20.32,20.01,30.95,30.44,13.74,13.5,27.91,27.4,41.73,41.11,1.56,1.54,3.09,3.07,4.64,4.59,1.62,1.61,1.89,3.81,.73,5.78-.59,.98-1.49,1.84-2.6,2.49,7.57,7.53,14.99,14.97,22.15,22.24,3.6,3.65,7.12,7.25,10.58,10.78,22.35,22.96,20.66,40.78,8.7,65.43Zm97.35-276.09c-24.06,51.78-98.04,50.72-120.62-1.72l-52.26-121.37c69.33,43.89,144.67,44.57,213.8,2.4,5.13-3.13,11-4.86,17.01-4.86h.42l-58.35,125.55Zm-.74-138.51c-74.4,30.75-148.03,.7-198.84-57.25-52.13-59.46-67.43-133.28-82.48-208.42,44.67,0,63.15-59.78,89.8-67.57,83.41-24.38,103.48,13.77,155.25-14.27,16.78-9.09,33.27-18.75,49.47-28.84,13.19-8.22,58.88-26.52,58.88-26.52,0,0,19.38,67.27,.08,86.06,20.67,2.92,45.14-21.4,65.7-17.89,24.83,4.24,21.15,27.48,20.3,52.69-1.3,38.47-10.21,78.91-22.41,115.28-22.72,67.68-67.2,138.4-135.73,166.72Zm167.74,261.18c-37.62,0-68.11-30.49-68.11-68.11s29.41-66.99,66.09-68.06c.04-5.74-.3-11.51-1.05-17.29-5.33-41.14-31.28-86.02-69.41-121.98l16.23-28.11c49.1,42.83,82.88,98.56,89.46,149.37,1.18,9.12,1.48,18.19,.98,27.18,20.28,11.8,33.92,33.75,33.92,58.9,0,37.62-30.49,68.11-68.11,68.11Z"/>
      <g>
        <path class="cls-2" d="M1016.08,1731.85c-.81,.07-1.62,.13-2.44,.17-.89,.04-1.79,.06-2.69,.06-.08,0-.16,0-.24,0-1.88,0-3.81-.08-5.72-.25-10.49-.91-18.85-4.91-26.12-10.93-15.45-10.7-31.81-28.07-49.71-47.08-28.94-30.73-61.74-65.56-87.79-65.56-.49,0-.97,.03-1.45,.06-1.3,.09-2.6,.19-3.89,.33-.46,.05-.92,.12-1.38,.17-.9,.11-1.79,.23-2.68,.36-.77,.11-1.53,.23-2.29,.36-.45,.08-.9,.16-1.35,.25-1.54,.28-3.06,.59-4.57,.92-.34,.08-.69,.15-1.03,.23-.9,.21-1.8,.42-2.69,.65-.05,.01-.09,.02-.14,.04-1.73,.44-3.43,.91-5.1,1.4-.52,.15-1.04,.31-1.56,.46-.69,.21-1.37,.42-2.05,.63-1.07,.34-2.14,.69-3.19,1.05-.55,.18-1.08,.37-1.62,.56-.67,.23-1.33,.47-1.99,.71-.44,.16-.87,.31-1.31,.47-1.06,.39-2.11,.79-3.14,1.18-.24,.09-.47,.18-.71,.28-.89,.35-1.77,.69-2.63,1.04-.3,.12-.59,.24-.88,.36-1,.4-1.98,.8-2.93,1.2-.03,.01-.07,.03-.1,.04-22.62,9.41-48.38,18.96-74.45,22.7-7.29,1.05-14.61,1.66-21.89,1.66h0c-1.68,0-3.33-.04-4.98-.11-.42-.02-.83-.03-1.24-.05-1.64-.08-3.27-.18-4.88-.32,0,0-.01,0-.02,0-.02,0-.03,0-.05,0-1.37-.12-2.72-.27-4.07-.44-.43-.05-.86-.12-1.28-.17-.95-.13-1.89-.26-2.82-.41-.47-.08-.94-.15-1.41-.23-.93-.16-1.85-.34-2.77-.52-.41-.08-.82-.16-1.23-.25-1.3-.28-2.58-.57-3.86-.89,0,0-.01,0-.02,0h0c-1.38-.35-2.75-.74-4.12-1.18h-.01c-1.37-.44-2.73-.92-4.08-1.45l-.47-.18c-1.2-.46-2.39-.97-3.55-1.53-1.31-.61-2.61-1.26-3.88-1.95-.92-.49-1.82-1.01-2.71-1.56l-1.04-.65c-1.21-.77-2.38-1.58-3.52-2.43,0,0-.01,0-.02-.01-1.14-.85-2.23-1.73-3.29-2.66,0,0-.01-.01-.02-.02-1.05-.92-2.06-1.88-3.01-2.88,0,0,0,0-.01-.01-7.71-8.02-12.13-18.4-10.05-30.58,.11-.63,.23-1.26,.37-1.89,.07-.32,.15-.63,.23-.95,.07-.28,.13-.55,.21-.83,.12-.45,.25-.9,.38-1.36,.03-.11,.07-.23,.1-.34,.16-.53,.33-1.05,.51-1.58,0,0,0,0,0-.01,0,0,0,0,0-.01,1.03-2.99,2.37-5.95,3.98-8.8,.02-.05,.05-.09,.07-.14,.53-.94,1.09-1.86,1.68-2.77,.02-.03,.05-.07,.07-.1,.46-.78,.99-1.51,1.53-2.24,.15-.2,.29-.39,.43-.59,.61-.83,1.24-1.65,1.9-2.44,.03-.03,.05-.06,.08-.09,.61-.73,1.24-1.45,1.88-2.14,.16-.17,.31-.34,.47-.51,1.08-1.14,2.2-2.22,3.35-3.24,.14-.12,.28-.26,.42-.38,9.25-7.95,19.42-12.08,33.51-17.8,.81-.33,1.63-.66,2.46-1,.12-.05,.24-.1,.36-.15,.87-.35,1.75-.71,2.65-1.08,1.25-.51,2.54-1.04,3.85-1.59,.06-.03,.13-.06,.2-.08,.6-.25,1.21-.51,1.83-.77,.91-.38,1.84-.78,2.78-1.18,.18-.08,.37-.16,.56-.24,1.92-.83,3.91-1.7,5.96-2.62,.16-.07,.32-.14,.48-.22,1.04-.47,2.09-.94,3.16-1.44,.12-.06,.25-.12,.38-.17,2.86-1.31,5.85-2.73,8.98-4.27,.06-.03,.13-.06,.19-.09,1.51-.74,3.06-1.51,4.64-2.31,.1-.05,.2-.1,.31-.16,1.59-.8,3.21-1.64,4.87-2.5,.08-.04,.16-.08,.24-.13,1.7-.89,3.44-1.81,5.22-2.77,0,0,.01,0,.02-.01,5.48-2.95,11.33-6.25,17.6-9.95,2.31-1.36,4.67-2.78,7.1-4.25,.7-.43,1.41-.86,2.12-1.3,0,0,0,0,.01,0,1.49-.92,3.01-1.86,4.54-2.81,.17-.1,.33-.21,.5-.31,1.58-.99,3.18-2,4.82-3.04,0,0,.01,0,.02-.01,.52-.33,1.01-.64,1.51-.96,1.29-.82,2.56-1.64,3.82-2.44,.65-.41,1.29-.82,1.93-1.23,1.93-1.23,3.84-2.45,5.71-3.63,.06-.04,.11-.07,.17-.11,1.83-1.16,3.61-2.28,5.37-3.39,.35-.22,.69-.44,1.04-.65,3.68-2.31,7.23-4.52,10.66-6.61,.26-.16,.52-.32,.77-.47,3.45-2.1,6.77-4.08,10-5.95,.22-.13,.44-.26,.66-.38,1.63-.94,3.24-1.86,4.82-2.74h0c-42.05-13.34-80-10.5-122.92,8.03,0,0-13.5,7.68-45.46-2.5,.08-.17-19.18-5.34-19.18-5.34C310.69,1391.9,79.64,1107.08,79.64,768.26c0-235.27,111.4-444.51,284.33-577.88C144.69,335.1,0,583.69,0,866.08c0,348.72,220.66,645.87,529.96,759.53h0s5.03,29.62,19.9,55.29l17.66-27.29c6.4-9.9,17.11-16.44,28.89-16.9,7.32-.28,14.49,1.69,20.64,5.67l2.97,1.92c11.46,7.42,17.21,20.38,16.03,33.11,5.26-2.98,11.27-4.62,17.54-4.62,6.84,0,13.49,1.97,19.25,5.7l2.97,1.92c11.46,7.42,17.21,20.38,16.03,33.12,5.25-2.98,11.26-4.63,17.54-4.63,6.84,0,13.49,1.97,19.25,5.7l2.37,1.53c7.14,4.62,12.67,11.47,15.19,19.59,1.43,4.6,1.9,9.31,1.47,13.9,5.25-2.97,11.25-4.61,17.51-4.61,6.84,0,13.49,1.97,19.25,5.7l2.41,1.56c7.47,4.84,13.14,12.13,15.49,20.72,2.71,9.89,1.1,20.18-4.42,28.71l-13.71,21.18c13.9,8.35,28.96,27.22,50.94,22.75,10.97-2.23,17.05-10.37,19.88-15.56,.95-1.73,.56-3.88-.92-5.19l-12.2-10.16s28.87,16.66,39.47,17.73c8.41,.85,17.86,.09,26.35-4.63,5.11-2.84,8.55-6.42,10.87-9.95,3.86-5.89,2.8-13.71-2.48-18.37l-11.13-9.99s26.32,18.38,40.66,18.47c7.46,.05,15.8-2.66,23.41-9.34,10.1-8.86,11.59-15.17,12.17-21.82,.34-3.88-1.2-7.67-4.12-10.25l-20.79-18.35,14.9,9.97c12.03,8.05,28.3,6.44,38.09-4.23,8.94-9.74,12.63-22.86,12.63-22.87,0,0-3.61,.57-5.48,.74-.13,.01-.25,.02-.38,.03Z"/>
        <g>
          <path class="cls-2" d="M614.36,1653.06l-2.97-1.92c-11.61-7.52-27.12-4.2-34.64,7.42l-30.57,47.22c-7.52,11.61-4.2,27.12,7.42,34.64l2.97,1.92c11.61,7.52,27.12,4.2,34.64-7.42l30.57-47.22c7.52-11.61,4.19-27.12-7.42-34.64Z"/>
          <path class="cls-2" d="M670.15,1689.17l-2.97-1.92c-11.61-7.52-27.12-4.19-34.64,7.42l-30.57,47.22c-7.52,11.61-4.2,27.12,7.42,34.64l2.97,1.92c11.61,7.52,27.12,4.2,34.64-7.42l30.57-47.22c7.52-11.61,4.19-27.12-7.42-34.64Z"/>
          <path class="cls-2" d="M725.95,1725.28l-2.97-1.92c-11.61-7.52-27.12-4.2-34.63,7.42l-30.57,47.22c-7.52,11.61-4.2,27.12,7.42,34.64l2.97,1.92c11.61,7.52,27.12,4.19,34.64-7.42l30.56-47.22c7.52-11.61,4.2-27.12-7.42-34.64Z"/>
          <path class="cls-2" d="M781.74,1761.39l-2.97-1.92c-11.61-7.52-27.12-4.2-34.63,7.42l-30.57,47.22c-7.52,11.61-4.2,27.12,7.42,34.64l2.97,1.92c11.61,7.52,27.12,4.2,34.63-7.42l30.57-47.22c7.52-11.61,4.2-27.12-7.42-34.64Z"/>
          <path class="cls-2" d="M1617.98,866.08c0-282.39-144.69-530.98-363.97-675.69,172.93,133.37,284.33,342.61,284.33,577.88,0,338.82-231.05,623.64-544.17,705.59,0,0-26.2,7.04-26.03,7.34-27.05,7.08-38.61,.5-38.61,.5-66.8-28.84-82.12-19.72-159.02,29.33-72.41,46.19-99.08,45-118.12,61.36-6.94,5.96-12.66,15.22-14.2,24.26-3.13,18.34,14.87,30.86,32.06,35.21,38.91,9.85,82.94-5.71,118.42-20.47,15.19-6.32,32.01-12.04,49.7-13.43,56.57-4.45,124.67,119.78,167.52,123.49,62.35,5.38,64.33-55.77,82.16-95.81h0c309.29-113.66,529.94-410.84,529.94-759.56Z"/>
        </g>
      </g>
    </g>
  </g>
</svg>