<?xml version="1.0" encoding="UTF-8"?>
<svg id="Layer_2" data-name="Layer 2" xmlns="http://www.w3.org/2000/svg" viewBox="0 0 1042.55 782.86">
  <defs>
    <style>
      .cls-1 {
        font-family: TimesNewRomanPS-BoldMT, 'Times New Roman';
        font-size: 155.7px;
        font-weight: 700;
      }

      .cls-1, .cls-2 {
        fill: #fff;
      }

      .cls-3 {
        letter-spacing: -.06em;
      }

      .cls-4 {
        letter-spacing: 0em;
      }
    </style>
  </defs>
  <g id="Layer_1-2" data-name="Layer 1">
    <path class="cls-2" d="M647.21,312.56c10.7-4.5,15.68-15.49,4.6-41.25-19.63-45.6-7.13-107.04-14.71-152.43C626.66,56.43,584.08-1.3,515.38,.02c-67.79,1.3-107.2,56.46-118.15,118.11-9.5,53.48,7.86,115.57-19.78,160.15-12.44,20.06-9.13,31.73,.23,38.34-54.09,18.72-90.62,64.18-90.62,166.23h0c0,53.06,43.01,96.07,96.07,96.07h272.17c53.06,0,96.07-43.01,96.07-96.07h0c0-110.36-42.71-154.53-104.17-170.29Zm-146.43,179.51c-4.92,10.14-15.69,15.31-28.01,18.68-1.85,3.8-6.35,6.75-12.09,7.49-8.09,1.05-15.03-2.72-15.81-8.75-.78-6.04,4.97-11.45,13.06-12.5,5.13-.66,9.75,.62,12.65,3.19,7.54-2.19,14.16-5.5,17.12-11.8,3.5-7.46,4.36-12.75-2.63-19.76-5.12-5.14-10.48-10.5-15.94-15.95-1.33-1.33-2.67-2.67-4.02-4.02l-2.09,.27c-1.3,.17-2.58-.19-3.33-.94-12.14-12.07-22.34-22.08-31.18-30.6-6.66-6.41-12.53-7.02-21.04-5.92-.7,.09-1.37,.19-2.03,.29-7.4,1.19-12.42,3.55-16.82,10.8-6.43,10.58-13.75,22.86-22.36,37.53-.54,.92-1.67,1.59-2.97,1.76l-2.09,.27c-4.89,8.33-9.68,16.57-14.22,24.38-4.97,8.56-2.8,13.46,2.5,19.78,4.5,5.38,11.82,6.88,19.74,7.05,2.17-3.24,6.36-5.68,11.52-6.35,8.08-1.05,14.92,2.74,15.71,8.77,.78,6.03-4.87,11.43-12.95,12.48-5.74,.74-10.9-.95-13.69-4.15-12.75-.16-24.84-2.2-32.17-10.81-8.28-9.73-11-17.64-3.69-30.63,3.38-6,7.02-12.32,10.8-18.76-.58-.16-1.08-.44-1.47-.81-.76-.75-.9-1.77-.36-2.69,4.78-8.15,9.76-16.51,14.58-24.59,3.94-6.62,7.66-12.87,11.24-18.92,6.4-10.86,14.24-14.3,25.09-19.06,.27-.12,.55-.24,.82-.36l-.02-.13c-.14-1.16,.72-2.27,2.05-2.83-1.56-4.48-2.68-9.13-3.3-13.93-3.95-30.51,11.48-70.06,39.35-98.47l7.47,12.94c-21.95,24.24-33.88,56.45-30.62,81.58,.71,5.49,2.16,10.74,4.27,15.73,.42,.08,.82,.22,1.17,.42,.74,.42,1.22,1.06,1.3,1.78v.11c.29,.05,.57,.09,.84,.13,11.71,1.84,20.18,3.17,29.16,12.05,4.62,4.56,9.47,9.33,14.43,14.19,6.4,6.29,13.01,12.77,19.45,19.17,.73,.72,1.44,1.43,2.16,2.14,.76,.75,.88,1.78,.34,2.7-.27,.46-.69,.86-1.21,1.16,3.53,3.51,6.99,6.98,10.32,10.37,1.68,1.7,3.32,3.38,4.93,5.03,10.42,10.7,9.63,19.01,4.05,30.5Zm45.38-128.7c-11.22,24.14-45.7,23.65-56.23-.8l-24.36-56.58c32.32,20.46,67.44,20.78,99.67,1.12,2.39-1.46,5.13-2.27,7.93-2.27h.19l-27.2,58.53Zm-.34-64.57c-34.68,14.33-69.01,.33-92.69-26.69-24.3-27.72-31.43-62.13-38.45-97.16,20.82,0,29.44-27.87,41.86-31.5,38.88-11.37,48.24,6.42,72.37-6.65,7.82-4.24,15.51-8.74,23.06-13.44,6.15-3.83,27.45-12.36,27.45-12.36,0,0,9.03,31.36,.04,40.12,9.63,1.36,21.04-9.98,30.63-8.34,11.57,1.98,9.86,12.81,9.46,24.56-.61,17.93-4.76,36.78-10.45,53.74-10.59,31.55-31.32,64.52-63.27,77.72Zm78.19,121.76c-17.54,0-31.75-14.22-31.75-31.75s13.71-31.23,30.81-31.73c.02-2.67-.14-5.36-.49-8.06-2.48-19.18-14.58-40.1-32.35-56.87l7.56-13.1c22.89,19.97,38.64,45.94,41.7,69.63,.55,4.25,.69,8.48,.46,12.67,9.45,5.5,15.81,15.73,15.81,27.46,0,17.54-14.22,31.75-31.75,31.75Z"/>
    <text class="cls-1" transform="translate(0 731.85)"><tspan x="0" y="0">Nursing</tspan><tspan class="cls-3" x="536.44" y="0"> </tspan><tspan class="cls-4" x="566.77" y="0">Allianz</tspan></text>
  </g>
</svg>